<?xml version="1.0" standalone="no"?>
<!DOCTYPE svg PUBLIC "-//W3C//DTD SVG 20010904//EN"
 "http://www.w3.org/TR/2001/REC-SVG-20010904/DTD/svg10.dtd">
<svg version="1.0" xmlns="http://www.w3.org/2000/svg"
 width="8000.000000pt" height="5000.000000pt" viewBox="0 0 8000.000000 5000.000000"
 preserveAspectRatio="xMidYMid meet">
<metadata>
Created by potrace 1.16, written by Peter Selinger 2001-2019
</metadata>
<g transform="translate(0.000000,5000.000000) scale(0.100000,-0.100000)"
fill="#000000" stroke="none">
<path d="M19370 26534 c-36 -25 -86 -57 -112 -70 -27 -13 -48 -28 -48 -33 0
-22 45 -152 70 -202 71 -141 152 -205 298 -238 52 -12 97 -21 101 -21 4 0 -21
28 -55 63 -101 104 -162 260 -181 464 l-8 83 -65 -46z"/>
<path d="M49992 26002 c-17 -26 -53 -72 -81 -104 -28 -31 -51 -59 -51 -63 0
-4 20 -35 44 -69 60 -84 152 -168 223 -203 55 -26 65 -28 179 -27 69 1 129 6
140 12 18 11 18 11 0 12 -35 0 -140 65 -197 120 -68 67 -140 175 -189 287
l-37 83 -31 -48z"/>
<path d="M57220 23868 c-25 -13 -54 -37 -65 -54 -20 -31 -305 -163 -2360
-1087 -170 -76 -472 -212 -670 -302 -198 -89 -466 -210 -596 -268 l-235 -106
-45 15 c-68 24 -149 4 -209 -51 -14 -13 -52 -31 -85 -41 -380 -108 -851 -369
-1175 -650 -190 -164 -455 -454 -415 -454 2 0 53 13 112 30 244 67 409 78 461
30 19 -18 22 -17 108 58 248 212 515 376 813 496 115 47 240 90 245 85 2 -2
13 -23 25 -46 49 -98 159 -131 266 -79 57 28 89 63 100 109 6 23 90 68 749
401 407 206 1024 519 1371 694 l629 320 68 90 c137 182 296 258 380 183 l32
-29 278 139 c220 110 286 139 318 139 23 0 58 9 80 20 88 45 93 105 20 251
-43 85 -56 103 -85 115 -46 19 -63 18 -115 -8z"/>
<path d="M35450 22121 c-19 -10 -71 -31 -115 -46 -44 -15 -83 -30 -87 -34 -12
-11 10 -168 34 -241 24 -75 63 -141 110 -187 28 -27 210 -123 233 -123 4 0 -8
17 -25 37 -44 49 -87 144 -105 229 -16 74 -19 258 -6 337 4 26 5 47 2 47 -3
-1 -22 -9 -41 -19z"/>
<path d="M14125 20669 c-163 -24 -361 -107 -496 -208 -83 -63 -204 -189 -259
-272 -24 -35 -60 -83 -81 -106 -21 -22 -42 -58 -48 -80 -5 -21 -26 -105 -45
-188 -89 -373 -292 -1223 -346 -1450 -33 -137 -64 -271 -70 -297 -22 -91 28
-176 165 -278 370 -277 1166 -469 1635 -395 107 17 223 67 253 110 23 32 16 5
218 850 93 391 194 812 224 936 30 124 55 236 55 249 0 13 -6 46 -14 74 -8 28
-21 96 -30 151 -26 173 -92 337 -194 481 -52 73 -150 177 -204 215 -28 20 -30
21 -25 3 3 -10 8 -37 12 -60 5 -31 20 -55 66 -105 66 -70 132 -164 173 -247
32 -63 82 -211 91 -270 l7 -43 -52 39 c-299 226 -938 413 -1409 412 -102 -1
-219 -12 -277 -26 l-28 -7 24 34 c41 58 177 186 250 234 38 25 103 62 146 81
85 40 246 84 304 84 60 0 70 7 70 51 0 44 -1 44 -115 28z m285 -824 c285 -41
567 -141 753 -267 67 -46 137 -106 137 -119 0 -16 -69 -60 -126 -80 -387 -137
-1249 27 -1708 324 l-70 45 38 16 c96 40 288 82 421 92 44 4 82 9 85 11 10 11
359 -6 470 -22z"/>
<path d="M51097 20462 c-50 -29 -192 -337 -275 -592 -90 -277 -157 -608 -177
-875 -3 -44 -15 -181 -25 -305 -11 -124 -24 -292 -30 -375 -6 -82 -15 -190
-20 -240 -5 -49 -17 -169 -25 -265 -87 -1000 -218 -1934 -371 -2645 -436
-2026 -1146 -3105 -2179 -3314 -130 -26 -367 -44 -475 -36 -47 3 -393 1 -770
-5 l-685 -12 -60 23 c-259 97 -385 563 -385 1432 0 274 -16 465 -56 670 -111
572 -406 1139 -775 1492 -264 253 -609 468 -946 589 l-73 26 0 -228 0 -227 95
-42 c207 -91 409 -230 594 -408 387 -374 631 -865 717 -1440 10 -66 18 -243
24 -525 11 -531 32 -733 100 -998 104 -402 295 -650 575 -744 l80 -28 -1152 0
c-1055 0 -1153 1 -1153 16 0 11 -6 15 -20 11 -26 -7 -26 1 0 11 19 7 19 9 4
27 -8 11 -13 15 -10 9 3 -6 -1 -11 -9 -11 -11 0 -12 3 -3 14 6 8 17 12 25 9 9
-4 11 -2 6 7 -4 6 -8 21 -9 32 -2 33 -15 66 -24 60 -5 -3 -7 4 -5 15 2 11 -1
20 -6 20 -6 0 -7 4 -4 10 5 8 -12 43 -38 75 -4 6 -15 19 -23 30 -9 11 -12 13
-8 5 5 -10 1 -9 -14 4 -12 10 -19 22 -17 26 3 5 -5 6 -17 3 -22 -5 -22 -5 -5
9 18 13 16 16 -22 41 -45 30 -57 33 -64 15 -4 -10 -6 -10 -6 -1 -1 6 4 15 10
19 11 7 -58 51 -89 56 -9 2 -20 7 -23 11 -3 5 -20 9 -37 9 -18 1 -32 4 -32 8
0 5 -20 7 -45 5 -26 -1 -42 1 -39 7 9 13 -119 7 -128 -6 -4 -6 -8 1122 -8
2507 l0 2517 105 0 c61 0 105 4 105 10 0 5 6 7 14 4 8 -3 16 4 19 18 4 13 2
25 -3 26 -6 2 -7 8 -4 13 3 6 12 2 19 -8 10 -14 11 -21 2 -32 -10 -12 -9 -12
11 0 23 14 29 29 12 29 -5 0 -10 5 -10 12 0 8 6 6 17 -4 15 -16 17 -15 35 7
10 13 18 27 18 31 -1 4 2 10 7 13 33 24 46 138 19 176 -7 11 -14 23 -15 27 -5
24 -15 38 -32 43 -10 4 -19 12 -19 18 0 7 -9 18 -21 25 -17 11 -20 11 -14 0 3
-7 0 -5 -8 4 -12 15 -16 15 -30 3 -9 -8 -12 -10 -7 -3 15 18 12 27 -7 28 -10
1 -40 3 -68 4 -49 3 -50 4 -47 32 2 16 8 34 13 40 4 5 6 19 4 30 -5 18 -13
104 -18 187 -1 21 -8 42 -16 46 -10 7 -10 10 -1 13 10 3 10 17 1 63 -11 60
-18 90 -21 90 -1 0 -3 15 -6 34 -2 19 -9 40 -15 47 -6 7 -8 18 -4 24 3 5 1 10
-5 10 -6 0 -8 5 -5 10 10 16 -16 42 -34 35 -8 -3 -12 -3 -8 1 4 4 1 14 -6 23
-10 14 -10 14 5 3 15 -12 17 -11 15 7 0 11 -4 18 -8 15 -4 -2 -10 3 -13 12 -3
9 -2 12 5 8 8 -5 -1 18 -19 46 -2 2 -7 -1 -11 -9 -7 -10 -9 -9 -14 3 -4 9 -3
15 1 15 21 -3 22 3 5 19 -10 9 -12 13 -4 7 12 -8 12 -7 3 12 -7 12 -17 25 -24
29 -6 4 -8 3 -5 -3 3 -5 1 -10 -6 -10 -7 0 -13 8 -13 18 0 10 4 15 8 13 4 -3
5 2 2 10 -3 9 -10 14 -14 11 -11 -7 -32 20 -22 29 4 4 -2 14 -12 22 -11 8 -16
14 -12 14 5 0 3 7 -4 15 -7 8 -17 12 -23 8 -5 -3 -7 -2 -4 4 3 5 -15 30 -41
56 -33 33 -56 47 -79 49 -17 1 -30 5 -27 9 2 4 14 5 27 2 19 -5 18 -3 -8 18
-16 13 -32 24 -35 24 -3 0 -16 10 -29 22 -13 12 -30 19 -39 16 -10 -4 -13 -2
-8 5 5 8 0 12 -13 12 -12 0 -21 5 -21 11 0 5 -5 7 -11 4 -7 -5 -5 -13 6 -25 9
-10 12 -21 7 -24 -10 -6 -25 30 -22 53 1 7 -3 10 -9 6 -6 -3 -11 -3 -11 2 0 4
-15 14 -32 21 -18 7 -41 18 -51 23 -10 5 -22 7 -27 4 -6 -4 -10 -1 -10 6 0 7
-3 9 -6 6 -4 -3 -16 -2 -27 4 -12 7 -17 7 -13 1 7 -12 -20 -10 -31 3 -4 4 -2
5 5 1 6 -4 12 -2 12 5 0 7 -10 9 -25 7 -13 -3 -26 -2 -27 3 -5 14 -91 22 -238
22 -175 0 -249 -9 -268 -31 -7 -10 -10 -11 -6 -3 6 11 3 13 -12 7 -10 -4 -31
-10 -46 -13 -15 -3 -26 -9 -23 -13 7 -11 -22 -21 -39 -14 -7 3 -20 -1 -27 -8
-8 -7 -22 -14 -32 -16 -26 -4 -109 -52 -125 -71 -11 -12 -12 -13 -6 -1 7 13
-63 -33 -76 -50 -3 -4 -15 -12 -28 -19 -12 -7 -20 -16 -16 -22 8 -14 -17 -41
-33 -35 -16 7 -17 -15 0 -34 6 -8 2 -7 -9 3 -23 19 -16 25 -90 -65 -7 -10 -11
-18 -7 -18 4 0 -2 -7 -13 -15 -10 -8 -15 -15 -10 -15 6 0 1 -7 -10 -15 -17
-13 -17 -15 -1 -16 32 -3 35 -4 44 -14 4 -6 4 -7 -1 -3 -5 4 -16 2 -24 -5 -13
-9 -14 -9 -8 1 5 8 0 12 -13 12 -21 0 -46 -32 -34 -44 3 -3 1 -6 -5 -6 -6 0
-16 -9 -22 -21 -9 -16 -8 -25 6 -42 10 -12 12 -16 4 -9 -17 14 -34 16 -25 2 3
-5 2 -10 -4 -10 -6 0 -7 -7 -4 -17 4 -10 2 -14 -5 -9 -13 8 -26 -29 -16 -45 4
-8 3 -9 -4 -5 -16 10 -15 -7 1 -23 10 -10 8 -11 -8 -5 -18 7 -19 6 -6 -10 11
-14 12 -16 1 -14 -17 4 -42 -77 -33 -110 4 -19 3 -23 -7 -17 -10 6 -12 4 -7
-7 3 -9 1 -20 -3 -24 -5 -5 -11 -39 -14 -74 -2 -36 -7 -73 -11 -83 -4 -10 -5
-20 -2 -23 3 -3 2 -18 -3 -34 -5 -18 -4 -32 3 -39 8 -8 8 -11 -2 -11 -9 0 -12
-21 -10 -79 1 -43 -1 -83 -5 -89 -3 -6 0 -13 6 -15 9 -4 10 -6 1 -6 -6 -1 -15
4 -18 9 -8 13 -52 13 -60 0 -4 -6 -12 -10 -18 -9 -29 4 -47 -3 -81 -30 -20
-16 -37 -33 -37 -38 0 -4 -7 -12 -15 -16 -17 -10 -19 -31 -1 -22 6 4 2 -2 -10
-13 -16 -14 -19 -22 -10 -31 8 -8 8 -14 -2 -23 -10 -11 -11 -9 -5 7 4 11 4 17
0 14 -11 -11 -16 -69 -6 -69 6 0 10 -5 10 -11 0 -5 -4 -7 -10 -4 -13 8 -13 5
5 -46 18 -49 53 -92 68 -82 6 3 7 1 4 -4 -8 -12 17 -36 26 -26 4 3 7 1 7 -5 0
-23 75 -34 220 -33 l147 1 7 -62 c9 -91 7 -4936 -2 -4942 -5 -3 -63 -6 -130
-7 -67 0 -124 -5 -127 -9 -3 -5 -19 -6 -35 -4 -19 3 -30 1 -30 -6 0 -7 -7 -9
-16 -6 -23 9 -110 -34 -92 -45 7 -5 8 -9 3 -9 -6 0 -16 5 -23 12 -9 9 -12 9
-12 -1 0 -7 -4 -10 -8 -7 -4 2 -14 0 -22 -5 -13 -8 -13 -10 0 -19 11 -8 9 -9
-10 -5 -18 4 -32 0 -48 -15 -25 -24 -29 -35 -8 -27 8 3 17 -1 20 -9 9 -24 7
-31 -4 -14 -6 10 -10 11 -10 3 0 -15 -26 -17 -35 -3 -4 6 1 7 12 4 15 -5 15
-4 3 5 -10 7 -19 5 -31 -7 -9 -9 -15 -20 -13 -23 2 -4 -3 -10 -12 -13 -8 -3
-12 -10 -9 -16 4 -6 -1 -7 -11 -3 -12 4 -15 3 -10 -5 4 -7 0 -15 -9 -18 -9 -4
-14 -13 -11 -21 3 -8 2 -11 -4 -8 -5 3 -14 -5 -21 -17 -11 -20 -11 -22 3 -10
13 10 18 10 24 1 4 -7 3 -10 -2 -6 -14 8 -47 -20 -38 -34 5 -8 3 -10 -6 -4
-10 6 -12 4 -7 -8 3 -10 2 -17 -4 -17 -6 0 -8 -4 -4 -9 3 -5 1 -12 -5 -16 -5
-3 -10 -11 -10 -16 0 -6 6 -7 13 -3 7 5 6 0 -3 -11 -8 -10 -15 -28 -16 -39 -1
-12 -4 -29 -9 -39 -4 -9 -5 -26 -2 -37 5 -20 -2 -20 -883 -20 l-888 0 -22 35
c-25 40 -92 89 -147 109 -21 7 -85 23 -141 35 -207 44 -431 140 -564 240 -35
27 -91 79 -125 115 -33 36 -64 66 -68 66 -5 0 -63 -22 -130 -50 -212 -86 -393
-126 -592 -131 -59 -1 -74 -5 -78 -19 -7 -22 12 -313 24 -362 l9 -38 -4432 0
c-3039 0 -4426 4 -4416 11 77 52 238 120 608 255 31 12 42 21 42 37 0 12 9 53
18 92 13 50 23 71 36 73 18 4 778 -61 1166 -99 118 -12 267 -25 330 -31 110
-9 220 -19 795 -73 843 -79 1364 -108 1905 -109 571 -1 723 15 961 99 215 76
404 179 592 322 119 91 380 347 492 483 252 305 503 689 756 1157 56 103 110
202 120 218 10 17 136 264 280 550 416 827 563 1100 715 1333 62 95 71 114 56
118 -66 21 -125 52 -230 118 -66 42 -124 76 -128 76 -5 0 -39 -46 -75 -103
-156 -240 -323 -553 -723 -1356 -359 -719 -519 -1009 -761 -1376 -394 -597
-782 -969 -1151 -1106 -106 -39 -267 -77 -384 -91 -164 -19 -829 -16 -1180 6
-529 32 -1668 125 -2045 166 -44 5 -125 12 -180 15 -55 3 -158 12 -230 20 -71
8 -308 31 -525 51 -217 20 -397 38 -398 40 -2 1 16 39 41 83 l45 80 -26 5
c-66 13 -318 28 -424 25 l-118 -4 -72 -72 -73 -71 -305 23 c-2848 221 -4323
94 -4880 -422 -137 -127 -228 -304 -246 -478 l-7 -65 -722 0 -722 0 -24 26
c-37 40 -86 61 -220 93 -221 53 -390 127 -517 226 l-67 52 -115 -18 c-214 -35
-424 -60 -554 -66 l-129 -6 6 -121 c4 -67 9 -136 13 -153 l7 -33 -8497 0
-8497 0 -24 -25 c-32 -31 -32 -69 0 -100 l24 -25 36074 0 36074 0 21 23 c29
31 29 77 -1 105 l-23 22 -9856 0 -9855 0 -19 21 c-30 33 -85 57 -181 78 -302
66 -534 206 -619 374 -13 26 -26 47 -28 47 -2 0 -66 -16 -142 -36 -148 -37
-344 -74 -400 -74 -28 0 -35 -4 -40 -26 -8 -32 1 -342 11 -366 7 -17 -41 -18
-916 -18 l-924 0 -17 30 c-27 48 -99 86 -207 111 -312 71 -538 207 -622 376
-19 38 -34 69 -35 71 0 1 -25 -8 -55 -22 -110 -48 -182 -60 -357 -60 l-164 0
5 -230 c2 -127 8 -241 12 -253 l7 -23 -1348 2 c-742 1 -1326 3 -1299 5 802 55
1465 511 1973 1357 183 303 323 608 467 1011 31 88 61 169 66 180 29 65 149
483 214 745 249 1009 413 2236 550 4110 30 406 99 749 216 1067 40 110 157
357 217 459 l30 51 -51 12 c-29 7 -111 30 -184 52 -72 21 -138 39 -145 38 -7
0 -26 -8 -41 -17z m-9577 -6007 l0 -2505 -114 0 c-63 0 -121 -3 -130 -6 -15
-6 -16 219 -16 2505 l0 2511 130 0 130 0 0 -2505z m390 0 l0 -2505 -105 0
-105 0 0 2505 0 2505 105 0 105 0 0 -2505z m533 13 c-2 -1371 -3 -2500 -3
-2509 0 -10 -8 -15 -22 -13 -13 1 -71 3 -130 3 l-108 1 0 2505 0 2505 133 0
132 0 -2 -2492z m447 -15 l0 -2508 -132 2 -133 2 -3 2505 -2 2506 135 0 135 0
0 -2507z m-16535 -2434 c415 -15 1392 -73 1402 -83 1 -1 -124 -124 -278 -274
l-280 -272 -2026 0 -2025 0 6 38 c12 67 55 139 117 196 357 331 1364 460 3084
395z"/>
<path d="M37445 16649 c-179 -11 -375 -58 -495 -119 -56 -28 -179 -114 -192
-134 -9 -14 11 -26 47 -26 64 0 109 -21 161 -74 52 -53 84 -121 84 -177 l0
-28 56 34 c122 74 267 99 529 92 268 -6 459 -43 798 -153 144 -47 439 -159
496 -189 l32 -16 57 50 c156 136 326 189 467 147 96 -29 133 -97 99 -184 -22
-59 -104 -147 -168 -179 l-48 -25 105 -59 c72 -40 104 -64 103 -75 0 -10 13
-25 29 -35 l30 -17 115 200 c63 110 116 203 117 206 4 11 -56 42 -70 36 -7 -2
-62 23 -122 57 -227 126 -519 265 -783 370 -565 227 -1039 324 -1447 298z"/>
<path d="M12572 13670 c-162 -88 -292 -195 -292 -240 0 -14 284 -548 704
-1322 26 -49 51 -88 55 -88 15 0 71 67 85 102 25 60 20 158 -14 278 -47 162
-63 282 -57 434 3 77 12 157 22 193 l17 63 -217 305 c-119 167 -220 307 -224
309 -4 3 -39 -13 -79 -34z"/>
</g>
</svg>
